<?xml version="1.0" encoding="utf-8"?>
<!-- Generator: Adobe Illustrator 22.1.0, SVG Export Plug-In . SVG Version: 6.00 Build 0)  -->
<svg version="1.1" id="Layer_1" xmlns="http://www.w3.org/2000/svg" xmlns:xlink="http://www.w3.org/1999/xlink" x="0px" y="0px"
	 viewBox="0 0 100 84" style="enable-background:new 0 0 100 84;" xml:space="preserve">
<style type="text/css">
	.st0{fill:#FFFFFF;}
	.st1{fill:#E20024;}
</style>
<g>
	<g id="R392AM.tif_2_">
		<g>
			<path class="st0" d="M22.5,47.7c-0.5,1-0.6,1.1-0.6,1.3c-1.3,14.9,0.1,16.4,15,16.4c7.8,0,15.6,0,23.7,0c0,4.9,0,9.3,0,14.5
				c-4.6,0-9.2,0.1-13.7,0c-8.5-0.2-17,0.2-25.4-1C10,77.1,3.8,68.9,3.7,57.5c0-9.7,0.4-19.3-0.1-28.9c-1-16.7,8.7-23.7,21.6-25.2
				c8.3-0.9,17-0.3,25.2,1.1c10.9,1.9,16.6,9.9,16.7,21c0,3.2,0,6.3,0,9.5c-0.1,8.5-3.9,12.5-12.5,12.6c-9,0.1-18,0-27,0
				C26,47.7,24.2,47.7,22.5,47.7z M21.7,35.2c9.4,0,18,0,26.6-0.1c0.8,0,2-0.6,2.3-1.3c3.6-6.7-0.7-15.8-8-16.5
				c-4.3-0.4-8.6-0.4-12.9,0c-4,0.4-7.6,2-7.9,6.7C21.5,27.5,21.7,31,21.7,35.2z"/>
		</g>
	</g>
	<path class="st1" d="M88.3,81H75.4c-4.5,0-8.2-3.7-8.2-8.2v-7.4c0-4.5,3.7-8.2,8.2-8.2h12.9c4.5,0,8.2,3.7,8.2,8.2v7.4
		C96.4,77.3,92.8,81,88.3,81z"/>
</g>
</svg>
