<?xml version="1.0" encoding="utf-8"?>
<!-- Generator: Adobe Illustrator 15.0.0, SVG Export Plug-In . SVG Version: 6.00 Build 0)  -->
<!DOCTYPE svg PUBLIC "-//W3C//DTD SVG 1.1//EN" "http://www.w3.org/Graphics/SVG/1.1/DTD/svg11.dtd">
<svg version="1.1" id="Layer_1" xmlns="http://www.w3.org/2000/svg" xmlns:xlink="http://www.w3.org/1999/xlink" x="0px" y="0px"
	 width="28px" height="17px" viewBox="0 0 28 17" enable-background="new 0 0 28 17" xml:space="preserve">
<g id="Layer_1_1_">
	<g id="Capa_1">
	</g>
	<g id="Layer_3">
		<g>
			<polygon fill="#E61E25" points="3.087,1.9 5.087,1.9 5.087,0 1.188,0 1.188,17 5.087,17 5.087,15.1 3.087,15.1 			"/>
			<polygon fill="#E61E25" points="24.787,15.1 22.787,15.1 22.787,17 26.688,17 26.688,0 22.787,0 22.787,1.9 24.787,1.9 			"/>
		</g>
	</g>
</g>
<g>
	<path opacity="0.45" fill="#010101" enable-background="new    " d="M9.188,9.5h-1c-0.8,0-1.5-0.4-1.5-1.2c0-0.6,0-2.7,0.9-2.7
		c0.2,0,0.9,0.6,2,0.6c0.3,0,0.7-0.1,1-0.2c0,0.2,0,0.3,0,0.5c0,0.7,0.2,1.4,0.6,1.9C10.388,8.5,9.688,8.9,9.188,9.5z M9.587,5.6
		c-1.1,0-1.9-0.9-1.9-1.9c0-1.1,0.9-1.9,1.9-1.9s1.9,0.9,1.9,1.9S10.688,5.6,9.587,5.6z M18.287,5.6c-1.1,0-1.899-0.9-1.899-1.9
		c0-1.1,0.899-1.9,1.899-1.9c1.101,0,1.9,0.9,1.9,1.9S19.388,5.6,18.287,5.6z M19.688,9.5h-1c-0.5-0.6-1.2-0.9-2-1
		c0.4-0.6,0.6-1.2,0.6-1.9c0-0.2,0-0.3,0-0.5c0.301,0.1,0.7,0.2,1,0.2c1,0,1.801-0.6,2-0.6c1,0,0.9,2.1,0.9,2.7
		C21.188,9.1,20.487,9.5,19.688,9.5z"/>
</g>
<path fill="#010101" d="M17.287,15.3h-6.6c-1.2,0-2-0.7-2-2c0-1.7,0.4-4.3,2.6-4.3c0.3,0,1.2,1.1,2.7,1.1s2.4-1.1,2.7-1.1
	c2.2,0,2.6,2.6,2.6,4.3C19.287,14.5,18.487,15.3,17.287,15.3z"/>
<path fill="#010101" d="M13.987,9.5c-1.6,0-2.9-1.3-2.9-2.9s1.3-2.9,2.9-2.9c1.601,0,2.9,1.3,2.9,2.9S15.588,9.5,13.987,9.5z"/>
</svg>
