<svg width="116" height="32" viewBox="0 0 116 32" fill="none" xmlns="http://www.w3.org/2000/svg">
<path d="M0 16C0 7.16344 7.16344 0 16 0H100C108.837 0 116 7.16344 116 16C116 24.8366 108.837 32 100 32H16C7.16345 32 0 24.8366 0 16Z" fill="#154F90"/>
<g clip-path="url(#clip0_2226_2)">
<path d="M28.9601 14.6524C29.1489 14.4641 29.2729 14.3398 29.2794 14.1429C29.2859 13.9367 29.1583 13.806 28.981 13.6249L28.968 13.612C28.8959 13.538 28.7806 13.4402 28.6148 13.4402C28.4491 13.4402 28.3352 13.5372 28.2638 13.6105C27.9906 13.8907 27.7081 14.1717 27.432 14.4447L27.4018 14.4749C27.2893 14.5863 27.1769 14.6983 27.0644 14.8104C26.9693 14.9053 26.8749 14.9994 26.7783 15.0964V10.5641C26.7783 10.0252 26.6421 9.88149 26.1173 9.86424H26.0885C25.9631 9.85921 25.8031 9.86999 25.6769 9.99214C25.5501 10.115 25.5342 10.2745 25.5349 10.4002C25.5393 11.866 25.54 13.3569 25.54 14.7989V14.8801C25.54 15.6144 25.54 16.3488 25.54 17.0788V17.0859C25.5306 17.1549 25.5047 17.3647 25.7065 17.5163L25.9242 17.6794L28.9594 14.6516L28.9601 14.6524Z" fill="white"/>
<path d="M34.3588 9.91578C34.1901 9.76059 33.9811 9.71388 33.7699 9.78286C33.5349 9.85974 33.3908 10.0401 33.3634 10.2887C33.349 10.423 33.3353 10.5574 33.3216 10.6954C32.1611 9.20518 30.8125 8.15185 29.3133 7.56339C27.7578 6.95338 26.0258 6.8377 24.1655 7.22139C20.6992 7.9363 18.3545 10.1213 17.385 13.5392C16.4257 16.9226 17.2611 19.9504 19.8689 22.5406C20.3215 22.9904 20.8607 23.3928 21.4704 23.7377C21.5742 23.7966 21.6838 23.8246 21.789 23.8246C21.9836 23.8246 22.166 23.7283 22.2777 23.5501C22.4536 23.2692 22.3714 22.9243 22.0824 22.7289C22.0478 22.7059 22.0118 22.6843 21.9757 22.6628C21.9599 22.6534 21.9433 22.6441 21.9274 22.634C20.5486 21.7905 19.4804 20.5518 18.8367 19.0516C18.1938 17.5521 18.0352 15.9297 18.379 14.3605C18.9571 11.7228 20.8102 9.59533 23.3366 8.66846C25.8615 7.7423 28.6545 8.16478 30.8082 9.79867C31.4036 10.2506 31.8879 10.7528 32.2786 11.3248C32.1453 11.2659 32.009 11.2069 31.8728 11.1523C31.5614 11.0287 31.2313 11.1638 31.1044 11.467C30.9805 11.7638 31.1066 12.0979 31.3913 12.2272C32.2267 12.6087 32.9071 12.9112 33.5306 13.1792C33.705 13.2547 33.8975 13.2432 34.0582 13.1483C34.2211 13.0521 34.3256 12.8861 34.3436 12.6928C34.4013 12.0799 34.4532 11.4563 34.5029 10.8534L34.5397 10.4108C34.5563 10.2104 34.4943 10.0394 34.3602 9.9165L34.3588 9.91578Z" fill="white"/>
<path d="M27.2497 23.7525C26.978 23.7647 26.6839 23.7877 26.3516 23.8215C26.0352 23.8545 25.8031 24.1125 25.8118 24.4228C25.8211 24.7447 26.0698 24.9862 26.4035 24.9984C26.4266 24.9991 26.4497 24.9991 26.4756 24.9991C26.4936 24.9991 26.5131 24.9991 26.5354 24.9991H26.6363L26.6522 24.9977C26.7113 24.9912 26.7747 24.9847 26.841 24.9783C27.0083 24.9617 27.1978 24.9438 27.3852 24.9114C27.6851 24.8597 27.8891 24.5888 27.8588 24.282C27.8285 23.9659 27.5654 23.7395 27.2483 23.7525H27.2497Z" fill="white"/>
<path d="M29.6636 22.9883C29.4956 23.0601 29.3277 23.1341 29.1605 23.2074L28.9255 23.3102C28.6941 23.4108 28.5529 23.5947 28.5464 23.8016V23.8038C28.5428 24.0344 28.635 24.2334 28.7994 24.3491C28.8959 24.4174 29.0098 24.4519 29.1295 24.4519C29.2059 24.4519 29.2844 24.4375 29.363 24.4095C29.647 24.3053 29.9202 24.1774 30.1732 24.0538C30.4831 23.9029 30.6078 23.5616 30.4644 23.2599C30.3231 22.9638 29.9865 22.8496 29.6643 22.9883H29.6636Z" fill="white"/>
<path d="M31.8193 21.5481C31.6816 21.6681 31.5447 21.7895 31.4077 21.9109L31.216 22.0812C31.0272 22.2479 30.9486 22.4664 31.007 22.6647V22.6668C31.0754 22.8874 31.2246 23.0483 31.4164 23.108C31.5288 23.1432 31.6485 23.141 31.7624 23.1044C31.8352 23.0807 31.9058 23.0433 31.9714 22.9923C32.21 22.8062 32.4298 22.6007 32.6331 22.406C32.8817 22.1675 32.8954 21.8046 32.6655 21.5618C32.4399 21.3232 32.0845 21.3175 31.82 21.5481H31.8193Z" fill="white"/>
<path d="M24.705 23.7034C24.354 23.5978 24.0304 23.5174 23.7161 23.457C23.4372 23.4031 23.1633 23.5777 23.0804 23.8622C22.9968 24.1468 23.1229 24.4442 23.3738 24.5542C23.7233 24.7079 24.0924 24.7747 24.4182 24.8329L24.4456 24.6921L24.4196 24.8337L24.4326 24.8358H24.4463C24.7721 24.8329 25.015 24.6483 25.0647 24.3645C25.1173 24.0656 24.9624 23.7818 24.7043 23.7034H24.705Z" fill="white"/>
<path d="M45.0793 15.2181C45.5622 15.507 45.9356 15.9108 46.2001 16.4295C46.4647 16.949 46.5973 17.5468 46.5973 18.2251C46.5973 18.9033 46.4668 19.4853 46.2066 19.9955C45.9464 20.5063 45.5767 20.9037 45.0981 21.1882C44.6195 21.4727 44.0652 21.615 43.4352 21.615C42.9314 21.615 42.4859 21.5165 42.1003 21.3197C41.714 21.1228 41.3947 20.8361 41.1431 20.4596V21.5518H39.5055V12.2363H41.1431V15.9409C41.3867 15.5644 41.6996 15.2778 42.0816 15.0809C42.4636 14.884 42.9069 14.7856 43.4107 14.7856C44.0407 14.7856 44.5971 14.93 45.08 15.2188L45.0793 15.2181ZM44.4054 19.6384C44.7578 19.2576 44.9344 18.7697 44.9344 18.1755C44.9344 17.5813 44.7578 17.0956 44.4054 16.7191C44.0529 16.3426 43.5995 16.1543 43.0453 16.1543C42.491 16.1543 42.0246 16.3426 41.6722 16.7191C41.3197 17.0956 41.1431 17.5813 41.1431 18.1755C41.1431 18.7697 41.3197 19.2676 41.6722 19.6448C42.0246 20.0213 42.4823 20.2096 43.0453 20.2096C43.6082 20.2096 44.0529 20.0192 44.4054 19.6384Z" fill="white"/>
<path d="M53.5313 15.2181C54.0143 15.507 54.3876 15.9108 54.6521 16.4295C54.9167 16.949 55.0486 17.5468 55.0486 18.2251C55.0486 18.9033 54.9181 19.4853 54.6579 19.9955C54.3977 20.5063 54.028 20.9037 53.5494 21.1882C53.0707 21.4727 52.5165 21.615 51.8865 21.615C51.3827 21.615 50.9372 21.5165 50.5516 21.3197C50.1653 21.1228 49.846 20.8361 49.5944 20.4596V21.5518H47.9568V12.2363H49.5944V15.9409C49.838 15.5644 50.1509 15.2778 50.5329 15.0809C50.9149 14.884 51.3582 14.7856 51.862 14.7856C52.492 14.7856 53.0484 14.93 53.5313 15.2188V15.2181ZM52.8574 19.6384C53.2099 19.2576 53.3865 18.7697 53.3865 18.1755C53.3865 17.5813 53.2099 17.0956 52.8574 16.7191C52.5049 16.3426 52.0508 16.1543 51.4966 16.1543C50.9423 16.1543 50.4759 16.3426 50.1235 16.7191C49.771 17.0956 49.5944 17.5813 49.5944 18.1755C49.5944 18.7697 49.771 19.2676 50.1235 19.6448C50.4759 20.0213 50.9336 20.2096 51.4966 20.2096C52.0595 20.2096 52.5042 20.0192 52.8574 19.6384Z" fill="white"/>
<path d="M59.2192 16.2152C58.6728 16.2152 58.2303 16.3991 57.8901 16.7677C57.5499 17.1363 57.3798 17.6134 57.3798 18.199C57.3798 18.7846 57.5499 19.2875 57.8901 19.6554C58.2303 20.024 58.6728 20.2079 59.2192 20.2079C60.025 20.2079 60.6298 19.9442 61.0334 19.4168L62.054 20.2582C61.752 20.6936 61.3527 21.0285 60.8575 21.2627C60.3616 21.4969 59.7865 21.614 59.132 21.614C58.4775 21.614 57.8785 21.4718 57.3625 21.1872C56.8457 20.9027 56.4449 20.5032 56.1595 19.9881C55.874 19.4729 55.7313 18.8808 55.7313 18.2112C55.7313 17.5415 55.8762 16.9344 56.166 16.4156C56.4557 15.8969 56.8586 15.4945 57.3754 15.21C57.8922 14.9255 58.4862 14.7832 59.1579 14.7832C59.7706 14.7832 60.3191 14.8903 60.802 15.1037C61.285 15.3171 61.6778 15.621 61.9798 16.014L60.9844 16.956C60.531 16.4624 59.9429 16.2152 59.2206 16.2152H59.2192Z" fill="white"/>
<path d="M63.3882 12.2363H65.0258V21.5539H63.3882V12.2363Z" fill="white"/>
<path d="M75.1974 15.7C75.7387 16.3115 76.0097 17.1694 76.0097 18.2744C76.0097 18.4921 76.0054 18.6552 75.9975 18.7644H71.0219C71.1307 19.2415 71.3556 19.6166 71.6958 19.8882C72.036 20.1605 72.4534 20.2963 72.9493 20.2963C73.2938 20.2963 73.6232 20.2316 73.9382 20.1016C74.2532 19.9715 74.5278 19.7854 74.7635 19.5426L75.645 20.4594C75.3091 20.828 74.8997 21.1125 74.4168 21.313C73.9339 21.5142 73.3983 21.614 72.8109 21.614C72.1225 21.614 71.5156 21.4718 70.9909 21.1872C70.4662 20.9027 70.0604 20.5032 69.7749 19.9881C69.4895 19.4729 69.3468 18.8808 69.3468 18.2112C69.3468 17.5415 69.4917 16.9473 69.7814 16.4279C70.0712 15.9091 70.4763 15.5046 70.9967 15.2165C71.5171 14.9276 72.1096 14.7832 72.7727 14.7832C73.8474 14.7832 74.6561 15.0886 75.1974 15.7ZM74.5112 17.6716C74.4939 17.178 74.3303 16.7842 74.0196 16.4911C73.709 16.1979 73.2974 16.0514 72.7849 16.0514C72.3063 16.0514 71.9049 16.1958 71.582 16.4846C71.2583 16.7735 71.0594 17.1686 70.9837 17.6716H74.5105H74.5112Z" fill="white"/>
<path d="M83.1766 15.4692C83.6214 15.934 83.8441 16.5634 83.8441 17.3588V21.5527H82.1942V17.8359C82.1942 17.3674 82.0601 16.9967 81.7913 16.7244C81.5224 16.4528 81.157 16.3163 80.695 16.3163C80.1493 16.3249 79.719 16.5088 79.404 16.8688C79.0891 17.2288 78.9319 17.6893 78.9319 18.2498V21.552H77.2943V14.834H78.9319V16.0899C79.394 15.2277 80.1998 14.788 81.3502 14.7715C82.1228 14.7715 82.7312 15.0036 83.1766 15.4684V15.4692Z" fill="white"/>
<path d="M93.2293 16.3167C93.7332 16.543 94.1217 16.8584 94.3949 17.2644C94.6673 17.6703 94.8043 18.1288 94.8043 18.6396C94.8043 19.2338 94.6615 19.7569 94.3761 20.2095C94.0907 20.6615 93.6878 21.0114 93.1666 21.2578C92.6455 21.505 92.0415 21.6286 91.3524 21.6286C90.7981 21.6286 90.2208 21.5345 89.6204 21.3462C89.02 21.158 88.4888 20.9051 88.0267 20.5868L88.6942 19.2683C89.0719 19.5615 89.4748 19.7892 89.9037 19.9523C90.3318 20.1154 90.7599 20.1973 91.1888 20.1973C91.7431 20.1973 92.1821 20.0702 92.505 19.8144C92.8279 19.5593 92.9901 19.2094 92.9901 18.7661C92.9901 18.3227 92.8308 18.0088 92.5114 17.7738C92.1921 17.5396 91.7179 17.4225 91.0879 17.4225C90.7859 17.4225 90.3866 17.4332 89.8914 17.4541C89.3955 17.4749 89.0135 17.4979 88.7454 17.5231V12.7637H94.4136V14.233H90.3073V15.9783H91.4786C92.1417 15.9783 92.7255 16.0911 93.2293 16.3174V16.3167Z" fill="white"/>
<path d="M97.3494 12.0098L99.0007 13.1881L97.3097 15.5671L95.9756 15.3364L97.3494 12.0105V12.0098Z" fill="white"/>
</g>
<defs>
<clipPath id="clip0_2226_2">
<rect width="82" height="18" fill="white" transform="translate(17 7)"/>
</clipPath>
</defs>
</svg>
