<svg id="Capa_1" data-name="Capa 1" xmlns="http://www.w3.org/2000/svg" viewBox="0 0 340 115.95"><defs><style>.cls-1{fill:#fafafa;}.cls-2{fill:#fff;}.cls-3{fill:#4a72b0;}</style></defs><title>bbcl_dm</title><path class="cls-1" d="M170.15,42.5c-8.32,0-14.42,3.55-18.41,9.2h-.22V19.65H141V96.16h10.21V87.85h.22c4.32,6.43,10.86,9.53,18.51,9.53,15.64,0,25.62-12,25.62-27.61S185.56,42.5,170.15,42.5Zm-2.22,45.79c-10.53,0-16.86-8.09-16.86-18.63s6.33-18.52,16.86-18.52,16.74,8,16.74,18.52S178.46,88.29,167.93,88.29Z"/><path class="cls-1" d="M236.34,42.5c-8.32,0-14.42,3.55-18.41,9.2h-.22V19.65H207.17V96.16h10.2V87.85h.23c4.32,6.43,10.86,9.53,18.51,9.53,15.64,0,25.62-12,25.62-27.61S251.75,42.5,236.34,42.5Zm-2.22,45.79c-10.54,0-16.86-8.09-16.86-18.63s6.32-18.52,16.86-18.52,16.74,8,16.74,18.52S244.65,88.29,234.12,88.29Z"/><path class="cls-1" d="M297.2,88.29C287,88.29,280,80.64,280,69.55s7.76-18.18,17.07-18.18,14,4.65,15.75,6.43L316.61,50c-.56-.67-6.32-7.54-20.41-7.54s-26.94,10.42-26.94,27.38,12.42,27.5,26.61,27.5,19.52-6.43,21.07-8l-3.77-7.76A21.89,21.89,0,0,1,297.2,88.29Z"/><rect class="cls-1" x="326.03" y="19.65" width="10.53" height="76.51"/><rect class="cls-2" x="22.99" y="19.65" width="73.94" height="80.91"/><path class="cls-3" d="M111,3.71H5.62A1.53,1.53,0,0,0,4.09,5.24V110.59a1.53,1.53,0,0,0,1.53,1.53H111a1.54,1.54,0,0,0,1.53-1.53V5.24A1.54,1.54,0,0,0,111,3.71ZM61.49,89.5v6.66h-2.8V89.5A33.12,33.12,0,0,1,27,56.41V23.28h6.63V56.41a26.51,26.51,0,0,0,25.1,26.47V76.23A19.87,19.87,0,0,1,40.22,56.41V36.53h6.62V56.41A13.25,13.25,0,0,0,58.69,69.59V62.88a6.61,6.61,0,1,1,2.8,0v6.7a13.25,13.25,0,0,0-1.4-26.43H53.47V36.53h6.62a19.87,19.87,0,0,1,1.4,39.7v6.65a26.51,26.51,0,0,0-1.39-53H40.22V23.28H60.09a33.12,33.12,0,0,1,1.4,66.22Z"/></svg>