<svg width="116" height="32" viewBox="0 0 116 32" fill="none" xmlns="http://www.w3.org/2000/svg">
<path d="M0 16C0 7.16344 7.16344 0 16 0H100C108.837 0 116 7.16344 116 16V16C116 24.8366 108.837 32 100 32H16C7.16345 32 0 24.8366 0 16V16Z" fill="#18A3E6"/>
<g clip-path="url(#clip0_2248_40)">
<path d="M28.9602 14.6524C29.1491 14.4641 29.273 14.3398 29.2795 14.1429C29.286 13.9367 29.1584 13.806 28.9811 13.6249L28.9681 13.612C28.8961 13.538 28.7807 13.4402 28.615 13.4402C28.4492 13.4402 28.3353 13.5372 28.2639 13.6105C27.9908 13.8907 27.7082 14.1717 27.4322 14.4447L27.4019 14.4749C27.2894 14.5863 27.177 14.6983 27.0646 14.8104C26.9694 14.9053 26.875 14.9994 26.7784 15.0964V10.5641C26.7784 10.0252 26.6422 9.88149 26.1174 9.86424H26.0886C25.9632 9.85921 25.8032 9.86999 25.677 9.99214C25.5502 10.115 25.5343 10.2745 25.5351 10.4002C25.5394 11.866 25.5401 13.3569 25.5401 14.7989V14.8801C25.5401 15.6144 25.5401 16.3488 25.5401 17.0788V17.0859C25.5307 17.1549 25.5048 17.3647 25.7066 17.5163L25.9243 17.6794L28.9595 14.6516L28.9602 14.6524Z" fill="white"/>
<path d="M34.3588 9.91578C34.1901 9.76058 33.9811 9.71388 33.7699 9.78286C33.5349 9.85974 33.3908 10.0401 33.3634 10.2887C33.349 10.423 33.3353 10.5574 33.3216 10.6954C32.1611 9.20518 30.8125 8.15185 29.3133 7.56339C27.7578 6.95338 26.0258 6.8377 24.1655 7.22139C20.6992 7.9363 18.3545 10.1213 17.385 13.5392C16.4257 16.9226 17.2611 19.9504 19.8689 22.5406C20.3215 22.9904 20.8607 23.3928 21.4704 23.7377C21.5742 23.7966 21.6838 23.8246 21.789 23.8246C21.9836 23.8246 22.166 23.7283 22.2777 23.5501C22.4536 23.2692 22.3714 22.9243 22.0824 22.7289C22.0478 22.7059 22.0118 22.6843 21.9757 22.6628C21.9599 22.6534 21.9433 22.6441 21.9274 22.634C20.5486 21.7905 19.4804 20.5518 18.8367 19.0516C18.1938 17.5521 18.0352 15.9297 18.379 14.3605C18.9571 11.7228 20.8102 9.59533 23.3366 8.66846C25.8615 7.7423 28.6545 8.16478 30.8082 9.79867C31.4036 10.2506 31.8879 10.7528 32.2786 11.3248C32.1453 11.2659 32.009 11.2069 31.8728 11.1523C31.5614 11.0287 31.2313 11.1638 31.1044 11.467C30.9805 11.7638 31.1066 12.0979 31.3913 12.2272C32.2267 12.6087 32.9071 12.9112 33.5306 13.1792C33.705 13.2547 33.8975 13.2432 34.0582 13.1483C34.2211 13.0521 34.3256 12.8861 34.3436 12.6928C34.4013 12.0799 34.4532 11.4563 34.5029 10.8534L34.5397 10.4108C34.5563 10.2104 34.4943 10.0394 34.3602 9.9165L34.3588 9.91578Z" fill="white"/>
<path d="M27.2497 23.7525C26.978 23.7647 26.6839 23.7877 26.3516 23.8215C26.0352 23.8545 25.8031 24.1125 25.8118 24.4228C25.8211 24.7447 26.0698 24.9862 26.4035 24.9984C26.4266 24.9991 26.4497 24.9991 26.4756 24.9991C26.4936 24.9991 26.5131 24.9991 26.5354 24.9991H26.6363L26.6522 24.9977C26.7113 24.9912 26.7747 24.9847 26.841 24.9783C27.0083 24.9617 27.1978 24.9438 27.3852 24.9114C27.6851 24.8597 27.8891 24.5888 27.8588 24.282C27.8285 23.9659 27.5654 23.7395 27.2483 23.7525H27.2497Z" fill="white"/>
<path d="M29.6637 22.9883C29.4958 23.0601 29.3278 23.1341 29.1606 23.2074L28.9256 23.3102C28.6942 23.4108 28.553 23.5947 28.5465 23.8016V23.8038C28.5429 24.0344 28.6351 24.2334 28.7995 24.3491C28.8961 24.4174 29.01 24.4519 29.1296 24.4519C29.206 24.4519 29.2846 24.4375 29.3631 24.4095C29.6471 24.3053 29.9203 24.1774 30.1733 24.0538C30.4832 23.9029 30.6079 23.5616 30.4645 23.2599C30.3232 22.9638 29.9866 22.8496 29.6644 22.9883H29.6637Z" fill="white"/>
<path d="M31.8195 21.5481C31.6819 21.6681 31.5449 21.7895 31.408 21.9109L31.2162 22.0812C31.0274 22.2479 30.9488 22.4664 31.0072 22.6647V22.6668C31.0757 22.8874 31.2249 23.0483 31.4166 23.108C31.5291 23.1432 31.6487 23.141 31.7626 23.1044C31.8354 23.0807 31.906 23.0433 31.9716 22.9923C32.2102 22.8062 32.43 22.6007 32.6333 22.406C32.882 22.1675 32.8957 21.8046 32.6657 21.5618C32.4401 21.3232 32.0848 21.3175 31.8203 21.5481H31.8195Z" fill="white"/>
<path d="M24.705 23.7034C24.354 23.5978 24.0304 23.5174 23.7161 23.457C23.4372 23.4031 23.1633 23.5777 23.0804 23.8622C22.9968 24.1468 23.1229 24.4442 23.3738 24.5542C23.7233 24.7079 24.0924 24.7747 24.4182 24.8329L24.4456 24.6921L24.4196 24.8337L24.4326 24.8358H24.4463C24.7721 24.8329 25.015 24.6483 25.0647 24.3645C25.1173 24.0656 24.9624 23.7818 24.7043 23.7034H24.705Z" fill="white"/>
<path d="M45.0792 15.2181C45.5621 15.507 45.9355 15.9108 46.2 16.4295C46.4645 16.949 46.5972 17.5468 46.5972 18.2251C46.5972 18.9033 46.4667 19.4853 46.2065 19.9955C45.9463 20.5063 45.5765 20.9037 45.0979 21.1882C44.6193 21.4727 44.0651 21.615 43.4351 21.615C42.9313 21.615 42.4858 21.5165 42.1002 21.3197C41.7139 21.1228 41.3945 20.8361 41.143 20.4596V21.5518H39.5054V12.2363H41.143V15.9409C41.3866 15.5644 41.6994 15.2778 42.0815 15.0809C42.4635 14.884 42.9068 14.7856 43.4106 14.7856C44.0405 14.7856 44.597 14.93 45.0799 15.2188L45.0792 15.2181ZM44.4053 19.6384C44.7577 19.2576 44.9343 18.7697 44.9343 18.1755C44.9343 17.5813 44.7577 17.0956 44.4053 16.7191C44.0528 16.3426 43.5994 16.1543 43.0451 16.1543C42.4909 16.1543 42.0245 16.3426 41.672 16.7191C41.3196 17.0956 41.143 17.5813 41.143 18.1755C41.143 18.7697 41.3196 19.2676 41.672 19.6448C42.0245 20.0213 42.4822 20.2096 43.0451 20.2096C43.6081 20.2096 44.0528 20.0192 44.4053 19.6384Z" fill="white"/>
<path d="M53.5311 15.2181C54.014 15.507 54.3874 15.9108 54.6519 16.4295C54.9164 16.949 55.0483 17.5468 55.0483 18.2251C55.0483 18.9033 54.9179 19.4853 54.6577 19.9955C54.3975 20.5063 54.0277 20.9037 53.5491 21.1882C53.0705 21.4727 52.5162 21.615 51.8863 21.615C51.3824 21.615 50.937 21.5165 50.5514 21.3197C50.165 21.1228 49.8457 20.8361 49.5942 20.4596V21.5518H47.9565V12.2363H49.5942V15.9409C49.8378 15.5644 50.1506 15.2778 50.5326 15.0809C50.9146 14.884 51.3579 14.7856 51.8618 14.7856C52.4917 14.7856 53.0482 14.93 53.5311 15.2188V15.2181ZM52.8572 19.6384C53.2096 19.2576 53.3862 18.7697 53.3862 18.1755C53.3862 17.5813 53.2096 17.0956 52.8572 16.7191C52.5047 16.3426 52.0506 16.1543 51.4963 16.1543C50.942 16.1543 50.4757 16.3426 50.1232 16.7191C49.7708 17.0956 49.5942 17.5813 49.5942 18.1755C49.5942 18.7697 49.7708 19.2676 50.1232 19.6448C50.4757 20.0213 50.9334 20.2096 51.4963 20.2096C52.0592 20.2096 52.504 20.0192 52.8572 19.6384Z" fill="white"/>
<path d="M59.2193 16.2152C58.673 16.2152 58.2304 16.3991 57.8902 16.7677C57.55 17.1363 57.3799 17.6134 57.3799 18.199C57.3799 18.7846 57.55 19.2875 57.8902 19.6554C58.2304 20.024 58.673 20.2079 59.2193 20.2079C60.0252 20.2079 60.6299 19.9442 61.0335 19.4168L62.0542 20.2582C61.7522 20.6936 61.3528 21.0285 60.8577 21.2627C60.3618 21.4969 59.7866 21.614 59.1321 21.614C58.4776 21.614 57.8787 21.4718 57.3626 21.1872C56.8458 20.9027 56.445 20.5032 56.1596 19.9881C55.8742 19.4729 55.7314 18.8808 55.7314 18.2112C55.7314 17.5415 55.8763 16.9344 56.1661 16.4156C56.4558 15.8969 56.8588 15.4945 57.3756 15.21C57.8924 14.9255 58.4863 14.7832 59.1581 14.7832C59.7707 14.7832 60.3192 14.8903 60.8022 15.1037C61.2851 15.3171 61.6779 15.621 61.9799 16.014L60.9845 16.956C60.5311 16.4624 59.943 16.2152 59.2208 16.2152H59.2193Z" fill="white"/>
<path d="M63.3882 12.2363H65.0258V21.5539H63.3882V12.2363Z" fill="white"/>
<path d="M75.1973 15.7C75.7386 16.3115 76.0096 17.1694 76.0096 18.2744C76.0096 18.4921 76.0053 18.6552 75.9974 18.7644H71.0218C71.1306 19.2415 71.3555 19.6166 71.6957 19.8882C72.0359 20.1605 72.4533 20.2963 72.9492 20.2963C73.2937 20.2963 73.6231 20.2316 73.9381 20.1016C74.2531 19.9715 74.5277 19.7854 74.7634 19.5426L75.6449 20.4594C75.309 20.828 74.8996 21.1125 74.4167 21.313C73.9338 21.5142 73.3982 21.614 72.8108 21.614C72.1224 21.614 71.5155 21.4718 70.9908 21.1872C70.4661 20.9027 70.0603 20.5032 69.7748 19.9881C69.4894 19.4729 69.3467 18.8808 69.3467 18.2112C69.3467 17.5415 69.4916 16.9473 69.7813 16.4279C70.0711 15.9091 70.4761 15.5046 70.9966 15.2165C71.517 14.9276 72.1094 14.7832 72.7726 14.7832C73.8473 14.7832 74.656 15.0886 75.1973 15.7ZM74.5111 17.6716C74.4938 17.178 74.3302 16.7842 74.0195 16.4911C73.7089 16.1979 73.2973 16.0514 72.7848 16.0514C72.3062 16.0514 71.9047 16.1958 71.5818 16.4846C71.2582 16.7735 71.0593 17.1686 70.9836 17.6716H74.5104H74.5111Z" fill="white"/>
<path d="M83.1768 15.4692C83.6215 15.934 83.8442 16.5634 83.8442 17.3588V21.5527H82.1943V17.8359C82.1943 17.3674 82.0603 16.9967 81.7914 16.7244C81.5226 16.4528 81.1571 16.3163 80.6951 16.3163C80.1495 16.3249 79.7192 16.5088 79.4042 16.8688C79.0892 17.2288 78.9321 17.6893 78.9321 18.2498V21.552H77.2944V14.834H78.9321V16.0899C79.3941 15.2277 80.1999 14.788 81.3503 14.7715C82.123 14.7715 82.7313 15.0036 83.1768 15.4684V15.4692Z" fill="white"/>
<path d="M93.2295 16.3167C93.7333 16.543 94.1218 16.8584 94.395 17.2644C94.6674 17.6703 94.8044 18.1288 94.8044 18.6396C94.8044 19.2338 94.6617 19.7569 94.3762 20.2095C94.0908 20.6615 93.6879 21.0114 93.1668 21.2578C92.6456 21.505 92.0416 21.6286 91.3526 21.6286C90.7983 21.6286 90.2209 21.5345 89.6205 21.3462C89.0201 21.158 88.4889 20.9051 88.0269 20.5868L88.6943 19.2683C89.072 19.5615 89.4749 19.7892 89.9038 19.9523C90.3319 20.1154 90.7601 20.1973 91.1889 20.1973C91.7432 20.1973 92.1822 20.0702 92.5051 19.8144C92.828 19.5593 92.9902 19.2094 92.9902 18.7661C92.9902 18.3227 92.8309 18.0088 92.5116 17.7738C92.1923 17.5396 91.718 17.4225 91.088 17.4225C90.786 17.4225 90.3867 17.4332 89.8915 17.4541C89.3956 17.4749 89.0136 17.4979 88.7455 17.5231V12.7637H94.4137V14.233H90.3074V15.9783H91.4787C92.1418 15.9783 92.7256 16.0911 93.2295 16.3174V16.3167Z" fill="white"/>
<path d="M97.3494 12.0098L99.0007 13.1881L97.3097 15.5671L95.9756 15.3364L97.3494 12.0105V12.0098Z" fill="white"/>
</g>
<defs>
<clipPath id="clip0_2248_40">
<rect width="82" height="18" fill="white" transform="translate(17 7)"/>
</clipPath>
</defs>
</svg>
